<svg id="Calque_1" data-name="Calque 1" xmlns="http://www.w3.org/2000/svg" viewBox="0 0 406.47 260.37"><title>group</title><path d="M276,577.09q-49.47,0-98.94,0c-8.27,0-11.48-3.62-9.87-11.46,4-19.71,8.25-39.38,12.34-59.07,2.29-11,8.06-19.93,17.31-25.88,8.75-5.63,18.34-10,27.58-14.83,2.64-1.4,5.24-3.17,8.08-3.86,7-1.7,7.19-8.43,10.36-13a1.62,1.62,0,0,0,.07-1.41q-4-7.87-8.07-15.71c-1-1.89-2.84-3.63-3.09-5.59-1.14-8.72-5.51-17.33-1.09-26.35.54-1.09-.1-2.89-.49-4.28a57.07,57.07,0,0,1,2.6-39c1.79-4.12,6-7.17,9.21-10.67.42-.47,1.22-.58,1.69-1,18.44-16.81,38.68-13.83,58.83-4.48,12.11,5.62,18.07,16.33,18.72,29.71.4,8.14.55,16.29.86,24.43a5.67,5.67,0,0,0,.62,2.83c7.1,11,2.9,21.29-1.85,31.57-2.89,6.26-5.83,12.5-8.57,18.83-.35.79.23,2.12.65,3.08.6,1.36,2.07,2.59,2.1,3.89.16,8,6.69,9,12.08,11,7.16,2.65,14.55,4.7,21.65,7.51C361.07,478.15,369,487,372,500c4.35,18.44,8.93,36.83,13.22,55.29a62,62,0,0,1,1.36,11.87c.24,6.52-2.55,9.54-9.14,9.84-5.48.26-11,.1-16.49.1Z" transform="translate(-77.72 -316.76)"/><path d="M449.87,429.08c-4.29,1.4-8.19,2.64-12.07,3.94-5.19,1.73-10.4,3.43-15.55,5.29s-5.55,5.05-1.67,8.86c2.93,2.88,5.44,6.18,8.3,9.14,1.59,1.65,3.28,3.55,5.31,4.36,10.65,4.23,21.29,8.52,32.18,12.07,9.84,3.21,14.65,7.53,15.38,17.75,1.17,16.23,1.59,32.52,2.42,48.77.18,3.39-.87,4.65-4.49,4.63q-40.74-.21-81.48,0c-3.53,0-5.51-1.19-6.36-4.8-3.77-16-8.08-31.93-11.43-48-1.77-8.47-5.92-14.74-13-19.21a110.54,110.54,0,0,0-13.6-7.33c-3.85-1.74-4.19-3.9-1.76-6.84,2.84-3.45,5.94-6.68,8.77-10.13,1.18-1.44,2.86-3.37,2.62-4.79s-2.35-3.07-4-3.73c-7.22-2.91-14.51-5.67-21.9-8.08-2.2-.71-4.82-.11-7.68-.11a16.7,16.7,0,0,1,1.12-3.28c8.95-14.35,12.42-30.31,14.14-46.86a225.3,225.3,0,0,1,3.34-22.72c4.06-19.49,21.81-32.1,42.33-31.33,18.86.7,36.88,13.15,40.24,36,1.44,9.86,3.41,19.66,4.8,29.53,1.7,12.08,6.16,23.08,12.13,33.58.66,1.16,1.28,2.33,1.86,3.53C450,429.51,449.87,429.89,449.87,429.08Z" transform="translate(-77.72 -316.76)"/><path d="M225.31,458.6c-4,1.81-8.07,3.57-12.07,5.43-10.88,5.05-21.65,10.18-30.14,19.12-5.76,6.07-8.53,13.28-10.15,21.26-2,10.11-4.55,20.12-6.6,30.22-.82,4.06-3.13,5.62-6.95,5.62q-37.49,0-75,0c-4.81,0-6.81-2-6.71-7,.3-14.66,0-29.37,5.31-43.38,4.69-12.29,13.82-19.86,25.77-24.88,12.4-5.2,24.6-10.92,36.7-16.8,5.91-2.88,8.24-10.83,5.48-16.9-3.3-7.25-6.81-14.41-10.26-21.59a7.49,7.49,0,0,0-1.38-2.07c-8.54-8.84-7.49-18.91-4.18-29.49a21.67,21.67,0,0,0,.46-8.8c-2-15.91,4.15-27.61,18.19-35.09,6.88-3.67,13-8.07,17.11-15.63l2.52,4.4,9.39-6.31c-1.52,8.17,3.35,10.54,8.36,13.24a135.94,135.94,0,0,1,17.25,10.81c6.81,5.15,9.48,12.7,9.69,21.05.19,7.79.12,15.28,3.7,22.83,3.07,6.47.71,13.68-2.94,20-1.63,2.83-3,5.83-4.4,8.78-2.66,5.52-4.9,11.28-8,16.53-4.84,8.19-3,16.16,5.43,20.59,4.38,2.29,8.9,4.31,13.36,6.45Z" transform="translate(-77.72 -316.76)"/></svg>