<svg id="Calque_1" data-name="Calque 1" xmlns="http://www.w3.org/2000/svg" viewBox="0 0 422.92 408.25"><defs><style>.cls-1{fill:#fa5f5a;}</style></defs><title>logo</title><path class="cls-1" d="M300.55,623.86a344.88,344.88,0,0,1-67-7.34c-8-1.72-11.16-5.84-10.29-13.82,1.65-15.06,3.21-30.15,5.47-45.12,3.91-26,22.23-44.44,48.51-46.64a306.4,306.4,0,0,1,54.35.4c23.27,2.23,42.24,22.9,45.58,47.16,2,14.35,3.55,28.75,5.15,43.15,1,8.91-2.52,13.58-11.28,15.08s-17.38,3.23-26.15,4C330.13,622.14,315.33,622.87,300.55,623.86Z" transform="translate(-91.42 -215.61)"/><path class="cls-1" d="M321.44,279.26c-.14,47-47,77.69-89.41,59.22a11.82,11.82,0,0,0-9.47-.46c-6.41,2.32-12.95,4.28-19.41,6.46-3.42,1.16-6.76,2-9.73-1s-1.84-6.05-.73-9.29c2.37-6.92,4.83-13.82,6.83-20.85a11.46,11.46,0,0,0-.48-7c-10.24-24.52-7.61-47.56,9.46-67.82,17.25-20.48,40-27.19,65.74-20.38,25.09,6.64,40.18,23.63,45.95,48.89a40,40,0,0,1,.89,5.42C321.31,275,321.35,277.48,321.44,279.26Z" transform="translate(-91.42 -215.61)"/><path class="cls-1" d="M405.41,595.63c-1.75-13.87-3.44-27.39-5.19-40.91a75.63,75.63,0,0,0-25-47.6c-.85-.78-1.81-1.44-3-2.36C381.47,493.05,393,485.32,407,484.4c18.89-1.25,38.12-1.81,56.86.31,23.81,2.7,41.51,22.27,45.06,46.43,2.16,14.66,3.7,29.41,5.25,44.15,1,9.24-2.21,13.34-11.21,15.11A339.9,339.9,0,0,1,405.41,595.63Z" transform="translate(-91.42 -215.61)"/><path class="cls-1" d="M233.35,504.52c-14.56,12.45-23.88,27.57-27,45.94-2.27,13.11-3.48,26.39-5.18,39.6-.23,1.79-.55,3.58-1,6.7-16,0-32,.77-47.91-.22-16.07-1-32.08-3.41-48-5.82-11.27-1.71-13.86-6.05-12.34-17.29,1.9-14,3.72-28,5.38-42.1,3-25.21,25.65-46.34,51.62-47.22,15.14-.51,30.34-.72,45.46.08C209.88,485,223,491.87,233.35,504.52Z" transform="translate(-91.42 -215.61)"/><path class="cls-1" d="M320.07,222.62c23-11.52,51.34-8.05,69.93,8.37,20.5,18.12,28.08,45.71,18.54,70.77-2.45,6.46-2.61,11.87,0,18a82.45,82.45,0,0,1,5,15.11c.58,2.72.21,6.66-1.45,8.52-1.43,1.6-5.51,1.91-8,1.27-6.92-1.77-13.67-4.21-20.39-6.62a11.78,11.78,0,0,0-9.51.39c-18.1,8.06-36.12,7.11-54.34-.93C348.81,299.15,349.42,261,320.07,222.62Z" transform="translate(-91.42 -215.61)"/><path class="cls-1" d="M119,417.26c.09-28.78,23.64-52.2,52.28-52a52.2,52.2,0,1,1-52.28,52Z" transform="translate(-91.42 -215.61)"/><path class="cls-1" d="M382.65,418.11c-.51-28.59,22.58-52.28,51.5-52.82,28.43-.54,52.45,22.9,52.83,51.56s-22.78,52.32-51.58,52.83C406.84,470.19,383.16,447,382.65,418.11Z" transform="translate(-91.42 -215.61)"/><path class="cls-1" d="M250.84,443.51a52.12,52.12,0,1,1,51.8,52.41A51.82,51.82,0,0,1,250.84,443.51Z" transform="translate(-91.42 -215.61)"/></svg>